<mxfile host="65bd71144e">
    <diagram id="b2b4Uzo1wVlJDdw1VtUP" name="Page-1">
        <mxGraphModel dx="1458" dy="2536" grid="1" gridSize="10" guides="1" tooltips="1" connect="1" arrows="1" fold="1" page="1" pageScale="1" pageWidth="850" pageHeight="1100" math="0" shadow="0">
            <root>
                <mxCell id="0"/>
                <mxCell id="1" parent="0"/>
                <mxCell id="2" value="" style="rounded=0;whiteSpace=wrap;html=1;strokeColor=#000000;" parent="1" vertex="1">
                    <mxGeometry x="40" y="220" width="160" height="120" as="geometry"/>
                </mxCell>
                <mxCell id="3" value="d" style="edgeStyle=none;html=1;entryX=0.5;entryY=0;entryDx=0;entryDy=0;fontSize=15;endArrow=open;endFill=0;endSize=15;startArrow=none;exitX=0.5;exitY=1;exitDx=0;exitDy=0;" parent="1" source="22" target="2" edge="1">
                    <mxGeometry relative="1" as="geometry">
                        <mxPoint x="150" y="190" as="sourcePoint"/>
                    </mxGeometry>
                </mxCell>
                <mxCell id="4" value="" style="rounded=0;whiteSpace=wrap;html=1;strokeColor=#000000;" parent="1" vertex="1">
                    <mxGeometry x="40" y="20" width="160" height="132.5" as="geometry"/>
                </mxCell>
                <mxCell id="5" value="" style="rounded=0;whiteSpace=wrap;html=1;strokeColor=#000000;" parent="1" vertex="1">
                    <mxGeometry x="300" y="95" width="120" height="160" as="geometry"/>
                </mxCell>
                <mxCell id="6" value="" style="edgeStyle=none;html=1;exitX=1;exitY=0.5;exitDx=0;exitDy=0;entryX=0;entryY=0.25;entryDx=0;entryDy=0;fontSize=15;endArrow=open;endFill=0;endSize=15;fillColor=#a20025;strokeColor=#6F0000;" parent="1" source="7" target="12" edge="1">
                    <mxGeometry relative="1" as="geometry"/>
                </mxCell>
                <mxCell id="7" value="Jump &amp;amp; Link F" style="text;html=1;strokeColor=none;fillColor=none;align=left;verticalAlign=middle;whiteSpace=wrap;rounded=0;fontSize=18;" parent="1" vertex="1">
                    <mxGeometry x="40" y="50" width="160" height="30" as="geometry"/>
                </mxCell>
                <mxCell id="8" value="&amp;lt;Next Instruction&amp;gt;" style="text;html=1;strokeColor=none;fillColor=none;align=left;verticalAlign=middle;whiteSpace=wrap;rounded=0;fontSize=18;" parent="1" vertex="1">
                    <mxGeometry x="40" y="80" width="160" height="30" as="geometry"/>
                </mxCell>
                <mxCell id="9" value="" style="edgeStyle=none;html=1;exitX=1;exitY=0.5;exitDx=0;exitDy=0;entryX=0;entryY=0.75;entryDx=0;entryDy=0;fontSize=15;endArrow=open;endFill=0;endSize=15;fillColor=#0050ef;strokeColor=#001DBC;" parent="1" source="10" target="12" edge="1">
                    <mxGeometry x="-0.3528" y="-2" relative="1" as="geometry">
                        <mxPoint as="offset"/>
                    </mxGeometry>
                </mxCell>
                <mxCell id="10" value="Jump &amp;amp; Link F" style="text;html=1;strokeColor=none;fillColor=none;align=left;verticalAlign=middle;whiteSpace=wrap;rounded=0;fontSize=18;" parent="1" vertex="1">
                    <mxGeometry x="40" y="250" width="160" height="30" as="geometry"/>
                </mxCell>
                <mxCell id="11" value="&amp;lt;Next Instruction&amp;gt;" style="text;html=1;strokeColor=none;fillColor=none;align=left;verticalAlign=middle;whiteSpace=wrap;rounded=0;fontSize=18;" parent="1" vertex="1">
                    <mxGeometry x="40" y="280" width="160" height="30" as="geometry"/>
                </mxCell>
                <mxCell id="12" value="F:" style="text;html=1;strokeColor=none;fillColor=none;align=left;verticalAlign=middle;whiteSpace=wrap;rounded=0;fontSize=18;" parent="1" vertex="1">
                    <mxGeometry x="300" y="105" width="120" height="30" as="geometry"/>
                </mxCell>
                <mxCell id="13" value="&amp;lt;Body of F&amp;gt;" style="text;html=1;strokeColor=none;fillColor=none;align=left;verticalAlign=middle;whiteSpace=wrap;rounded=0;fontSize=18;" parent="1" vertex="1">
                    <mxGeometry x="300" y="135" width="120" height="30" as="geometry"/>
                </mxCell>
                <mxCell id="14" value="" style="edgeStyle=none;html=1;exitX=0;exitY=0.5;exitDx=0;exitDy=0;entryX=1;entryY=0.5;entryDx=0;entryDy=0;fontSize=15;endArrow=open;endFill=0;endSize=15;fillColor=#a20025;strokeColor=#6F0000;" parent="1" source="16" target="8" edge="1">
                    <mxGeometry x="0.2398" y="-6" relative="1" as="geometry">
                        <mxPoint as="offset"/>
                    </mxGeometry>
                </mxCell>
                <mxCell id="15" value="" style="edgeStyle=none;html=1;exitX=0;exitY=0.5;exitDx=0;exitDy=0;entryX=1;entryY=0.5;entryDx=0;entryDy=0;fontSize=15;endArrow=open;endFill=0;endSize=15;fillColor=#0050ef;strokeColor=#001DBC;" parent="1" source="16" target="11" edge="1">
                    <mxGeometry relative="1" as="geometry"/>
                </mxCell>
                <mxCell id="16" value="return" style="text;html=1;strokeColor=none;fillColor=none;align=left;verticalAlign=middle;whiteSpace=wrap;rounded=0;fontSize=18;" parent="1" vertex="1">
                    <mxGeometry x="300" y="215" width="120" height="30" as="geometry"/>
                </mxCell>
                <mxCell id="17" value="..." style="text;html=1;strokeColor=none;fillColor=none;align=center;verticalAlign=bottom;whiteSpace=wrap;rounded=0;fontSize=40;fontStyle=1" parent="1" vertex="1">
                    <mxGeometry x="90" y="330" width="60" height="30" as="geometry"/>
                </mxCell>
                <mxCell id="18" value="..." style="text;html=1;strokeColor=none;fillColor=none;align=center;verticalAlign=bottom;whiteSpace=wrap;rounded=0;fontSize=40;fontStyle=1" parent="1" vertex="1">
                    <mxGeometry x="330" y="255" width="60" height="30" as="geometry"/>
                </mxCell>
                <mxCell id="19" value="..." style="text;html=1;strokeColor=none;fillColor=none;align=center;verticalAlign=bottom;whiteSpace=wrap;rounded=0;fontSize=40;fontStyle=1" parent="1" vertex="1">
                    <mxGeometry x="330" y="65" width="60" height="30" as="geometry"/>
                </mxCell>
                <mxCell id="22" value="..." style="text;html=1;strokeColor=none;fillColor=none;align=center;verticalAlign=bottom;whiteSpace=wrap;rounded=0;fontSize=40;fontStyle=1" parent="1" vertex="1">
                    <mxGeometry x="90" y="152.5" width="60" height="20" as="geometry"/>
                </mxCell>
                <mxCell id="23" value="a" style="edgeStyle=none;html=1;fontSize=15;endArrow=open;endFill=0;endSize=15;startArrow=none;" parent="1" edge="1">
                    <mxGeometry x="-0.375" relative="1" as="geometry">
                        <mxPoint x="120" y="-30" as="sourcePoint"/>
                        <mxPoint x="120" y="20" as="targetPoint"/>
                        <mxPoint as="offset"/>
                    </mxGeometry>
                </mxCell>
                <mxCell id="25" value="Save A ∩ C" style="rounded=1;whiteSpace=wrap;html=1;fontSize=13;" parent="1" vertex="1">
                    <mxGeometry x="80" y="30" width="80" height="20" as="geometry"/>
                </mxCell>
                <mxCell id="26" value="Restore A ∩ C" style="rounded=1;whiteSpace=wrap;html=1;fontSize=13;" parent="1" vertex="1">
                    <mxGeometry x="75" y="120" width="90" height="20" as="geometry"/>
                </mxCell>
                <mxCell id="27" value="Save B ∩ C" style="rounded=1;whiteSpace=wrap;html=1;fontSize=13;" parent="1" vertex="1">
                    <mxGeometry x="80" y="230" width="80" height="20" as="geometry"/>
                </mxCell>
                <mxCell id="28" value="Restore B ∩ C" style="rounded=1;whiteSpace=wrap;html=1;fontSize=13;" parent="1" vertex="1">
                    <mxGeometry x="75" y="310" width="90" height="20" as="geometry"/>
                </mxCell>
                <mxCell id="29" value="A" style="ellipse;whiteSpace=wrap;html=1;fontSize=27;fillColor=none;" parent="1" vertex="1">
                    <mxGeometry x="505" y="85" width="100" height="100" as="geometry"/>
                </mxCell>
                <mxCell id="30" value="C" style="ellipse;whiteSpace=wrap;html=1;fontSize=27;fillColor=none;" parent="1" vertex="1">
                    <mxGeometry x="575" y="105" width="100" height="100" as="geometry"/>
                </mxCell>
                <mxCell id="31" value="B" style="ellipse;whiteSpace=wrap;html=1;fontSize=27;fillColor=none;" parent="1" vertex="1">
                    <mxGeometry x="525" y="155" width="100" height="100" as="geometry"/>
                </mxCell>
                <mxCell id="39" value="Registers Used" style="text;html=1;strokeColor=none;fillColor=none;align=center;verticalAlign=middle;whiteSpace=wrap;rounded=0;fontSize=21;" parent="1" vertex="1">
                    <mxGeometry x="480" y="45" width="220" height="30" as="geometry"/>
                </mxCell>
                <mxCell id="40" value="A" style="text;html=1;strokeColor=none;fillColor=none;align=center;verticalAlign=middle;whiteSpace=wrap;rounded=0;fontSize=23;" vertex="1" parent="1">
                    <mxGeometry y="70" width="40" height="30" as="geometry"/>
                </mxCell>
                <mxCell id="41" value="B" style="text;html=1;strokeColor=none;fillColor=none;align=center;verticalAlign=middle;whiteSpace=wrap;rounded=0;fontSize=23;" vertex="1" parent="1">
                    <mxGeometry y="260" width="40" height="30" as="geometry"/>
                </mxCell>
                <mxCell id="42" value="C" style="text;html=1;strokeColor=none;fillColor=none;align=center;verticalAlign=middle;whiteSpace=wrap;rounded=0;fontSize=23;" vertex="1" parent="1">
                    <mxGeometry x="420" y="155" width="40" height="30" as="geometry"/>
                </mxCell>
                <mxCell id="43" value="Caller Saved" style="text;html=1;strokeColor=none;fillColor=none;align=center;verticalAlign=middle;whiteSpace=wrap;rounded=0;fontSize=25;" vertex="1" parent="1">
                    <mxGeometry x="130" y="-45" width="220" height="30" as="geometry"/>
                </mxCell>
                <mxCell id="44" value="" style="rounded=0;whiteSpace=wrap;html=1;strokeColor=#000000;" vertex="1" parent="1">
                    <mxGeometry x="750" y="205" width="160" height="70" as="geometry"/>
                </mxCell>
                <mxCell id="45" value="d" style="edgeStyle=none;html=1;entryX=0.5;entryY=0;entryDx=0;entryDy=0;fontSize=15;endArrow=open;endFill=0;endSize=15;startArrow=none;exitX=0.5;exitY=1;exitDx=0;exitDy=0;" edge="1" parent="1" source="62" target="44">
                    <mxGeometry relative="1" as="geometry">
                        <mxPoint x="860" y="175" as="sourcePoint"/>
                    </mxGeometry>
                </mxCell>
                <mxCell id="46" value="" style="rounded=0;whiteSpace=wrap;html=1;strokeColor=#000000;" vertex="1" parent="1">
                    <mxGeometry x="750" y="65" width="160" height="60" as="geometry"/>
                </mxCell>
                <mxCell id="47" value="" style="rounded=0;whiteSpace=wrap;html=1;strokeColor=#000000;" vertex="1" parent="1">
                    <mxGeometry x="1030" y="95" width="150" height="160" as="geometry"/>
                </mxCell>
                <mxCell id="48" value="" style="edgeStyle=none;html=1;exitX=1;exitY=0.5;exitDx=0;exitDy=0;entryX=0;entryY=0.25;entryDx=0;entryDy=0;fontSize=15;endArrow=open;endFill=0;endSize=15;fillColor=#a20025;strokeColor=#6F0000;" edge="1" parent="1" source="49" target="54">
                    <mxGeometry relative="1" as="geometry"/>
                </mxCell>
                <mxCell id="49" value="Jump &amp;amp; Link F" style="text;html=1;strokeColor=none;fillColor=none;align=left;verticalAlign=middle;whiteSpace=wrap;rounded=0;fontSize=18;" vertex="1" parent="1">
                    <mxGeometry x="750" y="65" width="160" height="30" as="geometry"/>
                </mxCell>
                <mxCell id="50" value="&amp;lt;Next Instruction&amp;gt;" style="text;html=1;strokeColor=none;fillColor=none;align=left;verticalAlign=middle;whiteSpace=wrap;rounded=0;fontSize=18;" vertex="1" parent="1">
                    <mxGeometry x="750" y="95" width="160" height="30" as="geometry"/>
                </mxCell>
                <mxCell id="51" value="" style="edgeStyle=none;html=1;exitX=1;exitY=0.5;exitDx=0;exitDy=0;entryX=0;entryY=0.75;entryDx=0;entryDy=0;fontSize=15;endArrow=open;endFill=0;endSize=15;fillColor=#0050ef;strokeColor=#001DBC;" edge="1" parent="1" source="52" target="54">
                    <mxGeometry x="-0.3528" y="-2" relative="1" as="geometry">
                        <mxPoint as="offset"/>
                    </mxGeometry>
                </mxCell>
                <mxCell id="52" value="Jump &amp;amp; Link F" style="text;html=1;strokeColor=none;fillColor=none;align=left;verticalAlign=middle;whiteSpace=wrap;rounded=0;fontSize=18;" vertex="1" parent="1">
                    <mxGeometry x="750" y="215" width="160" height="30" as="geometry"/>
                </mxCell>
                <mxCell id="53" value="&amp;lt;Next Instruction&amp;gt;" style="text;html=1;strokeColor=none;fillColor=none;align=left;verticalAlign=middle;whiteSpace=wrap;rounded=0;fontSize=18;" vertex="1" parent="1">
                    <mxGeometry x="750" y="245" width="160" height="30" as="geometry"/>
                </mxCell>
                <mxCell id="54" value="F:" style="text;html=1;strokeColor=none;fillColor=none;align=left;verticalAlign=middle;whiteSpace=wrap;rounded=0;fontSize=18;" vertex="1" parent="1">
                    <mxGeometry x="1030" y="100" width="120" height="30" as="geometry"/>
                </mxCell>
                <mxCell id="55" value="&amp;lt;Body of F&amp;gt;" style="text;html=1;strokeColor=none;fillColor=none;align=left;verticalAlign=middle;whiteSpace=wrap;rounded=0;fontSize=18;" vertex="1" parent="1">
                    <mxGeometry x="1030" y="160" width="120" height="30" as="geometry"/>
                </mxCell>
                <mxCell id="56" value="" style="edgeStyle=none;html=1;exitX=0;exitY=0.5;exitDx=0;exitDy=0;entryX=1;entryY=0.5;entryDx=0;entryDy=0;fontSize=15;endArrow=open;endFill=0;endSize=15;fillColor=#a20025;strokeColor=#6F0000;" edge="1" parent="1" source="58" target="50">
                    <mxGeometry x="0.2398" y="-6" relative="1" as="geometry">
                        <mxPoint as="offset"/>
                    </mxGeometry>
                </mxCell>
                <mxCell id="57" value="" style="edgeStyle=none;html=1;exitX=0;exitY=0.5;exitDx=0;exitDy=0;entryX=1;entryY=0.5;entryDx=0;entryDy=0;fontSize=15;endArrow=open;endFill=0;endSize=15;fillColor=#0050ef;strokeColor=#001DBC;" edge="1" parent="1" source="58" target="53">
                    <mxGeometry relative="1" as="geometry"/>
                </mxCell>
                <mxCell id="58" value="return" style="text;html=1;strokeColor=none;fillColor=none;align=left;verticalAlign=middle;whiteSpace=wrap;rounded=0;fontSize=18;" vertex="1" parent="1">
                    <mxGeometry x="1030" y="225" width="120" height="30" as="geometry"/>
                </mxCell>
                <mxCell id="59" value="..." style="text;html=1;strokeColor=none;fillColor=none;align=center;verticalAlign=bottom;whiteSpace=wrap;rounded=0;fontSize=40;fontStyle=1" vertex="1" parent="1">
                    <mxGeometry x="800" y="275" width="60" height="30" as="geometry"/>
                </mxCell>
                <mxCell id="60" value="..." style="text;html=1;strokeColor=none;fillColor=none;align=center;verticalAlign=bottom;whiteSpace=wrap;rounded=0;fontSize=40;fontStyle=1" vertex="1" parent="1">
                    <mxGeometry x="1060" y="255" width="60" height="30" as="geometry"/>
                </mxCell>
                <mxCell id="61" value="..." style="text;html=1;strokeColor=none;fillColor=none;align=center;verticalAlign=bottom;whiteSpace=wrap;rounded=0;fontSize=40;fontStyle=1" vertex="1" parent="1">
                    <mxGeometry x="1060" y="65" width="60" height="30" as="geometry"/>
                </mxCell>
                <mxCell id="62" value="..." style="text;html=1;strokeColor=none;fillColor=none;align=center;verticalAlign=bottom;whiteSpace=wrap;rounded=0;fontSize=40;fontStyle=1" vertex="1" parent="1">
                    <mxGeometry x="800" y="125" width="60" height="20" as="geometry"/>
                </mxCell>
                <mxCell id="63" value="a" style="edgeStyle=none;html=1;fontSize=15;endArrow=open;endFill=0;endSize=15;startArrow=none;entryX=0.5;entryY=0;entryDx=0;entryDy=0;" edge="1" parent="1" target="49">
                    <mxGeometry x="-0.375" relative="1" as="geometry">
                        <mxPoint x="830" y="25" as="sourcePoint"/>
                        <mxPoint x="830" y="35" as="targetPoint"/>
                        <mxPoint as="offset"/>
                    </mxGeometry>
                </mxCell>
                <mxCell id="64" value="Save (A&amp;nbsp;∪ B) ∩ C" style="rounded=1;whiteSpace=wrap;html=1;fontSize=13;" vertex="1" parent="1">
                    <mxGeometry x="1032.5" y="130" width="115" height="20" as="geometry"/>
                </mxCell>
                <mxCell id="65" value="Restore (A&amp;nbsp;∪ B) ∩ C" style="rounded=1;whiteSpace=wrap;html=1;fontSize=13;" vertex="1" parent="1">
                    <mxGeometry x="1032.5" y="200" width="137.5" height="20" as="geometry"/>
                </mxCell>
                <mxCell id="66" value="C" style="text;html=1;strokeColor=none;fillColor=none;align=center;verticalAlign=middle;whiteSpace=wrap;rounded=0;fontSize=23;" vertex="1" parent="1">
                    <mxGeometry x="1180" y="165" width="40" height="30" as="geometry"/>
                </mxCell>
                <mxCell id="67" value="B" style="text;html=1;strokeColor=none;fillColor=none;align=center;verticalAlign=middle;whiteSpace=wrap;rounded=0;fontSize=23;" vertex="1" parent="1">
                    <mxGeometry x="710" y="220" width="40" height="30" as="geometry"/>
                </mxCell>
                <mxCell id="68" value="A" style="text;html=1;strokeColor=none;fillColor=none;align=center;verticalAlign=middle;whiteSpace=wrap;rounded=0;fontSize=23;" vertex="1" parent="1">
                    <mxGeometry x="710" y="80" width="40" height="30" as="geometry"/>
                </mxCell>
                <mxCell id="69" value="Callee Saved" style="text;html=1;strokeColor=none;fillColor=none;align=center;verticalAlign=middle;whiteSpace=wrap;rounded=0;fontSize=25;" vertex="1" parent="1">
                    <mxGeometry x="890" y="-45" width="220" height="30" as="geometry"/>
                </mxCell>
            </root>
        </mxGraphModel>
    </diagram>
</mxfile>